<?xml version="1.0" encoding="UTF-8" standalone="no"?>
<!-- Created with Inkscape (http://www.inkscape.org/) -->

<svg
   xmlns:dc="http://purl.org/dc/elements/1.1/"
   xmlns:cc="http://creativecommons.org/ns#"
   xmlns:rdf="http://www.w3.org/1999/02/22-rdf-syntax-ns#"
   xmlns:svg="http://www.w3.org/2000/svg"
   xmlns="http://www.w3.org/2000/svg"
   xmlns:xlink="http://www.w3.org/1999/xlink"
   xmlns:sodipodi="http://sodipodi.sourceforge.net/DTD/sodipodi-0.dtd"
   xmlns:inkscape="http://www.inkscape.org/namespaces/inkscape"
   width="1856"
   viewbox="0 0 1856 512"
   height="512"
   id="svg2"
   version="1.1"
   inkscape:version="0.48.2 r9819"
   sodipodi:docname="monkeys-name.svg">
  <defs
     id="defs4">
    <linearGradient
       inkscape:collect="always"
       id="linearGradient4283">
      <stop
         style="stop-color:#5d5e5a;stop-opacity:1"
         offset="0"
         id="stop4285" />
      <stop
         style="stop-color:#000000;stop-opacity:1"
         offset="1"
         id="stop4287" />
    </linearGradient>
    <linearGradient
       inkscape:collect="always"
       id="linearGradient4209">
      <stop
         style="stop-color:#505557;stop-opacity:1"
         offset="0"
         id="stop4211" />
      <stop
         style="stop-color:#000000;stop-opacity:1"
         offset="1"
         id="stop4213" />
    </linearGradient>
    <linearGradient
       inkscape:collect="always"
       id="linearGradient4033">
      <stop
         style="stop-color:#ffffff;stop-opacity:0.31336406"
         offset="0"
         id="stop4035" />
      <stop
         style="stop-color:#ffffff;stop-opacity:0;"
         offset="1"
         id="stop4037" />
    </linearGradient>
    <linearGradient
       inkscape:collect="always"
       xlink:href="#linearGradient4033"
       id="linearGradient3197"
       gradientUnits="userSpaceOnUse"
       x1="304"
       y1="232"
       x2="456"
       y2="456" />
    <radialGradient
       inkscape:collect="always"
       xlink:href="#linearGradient4209"
       id="radialGradient3199"
       gradientUnits="userSpaceOnUse"
       gradientTransform="matrix(1,0,0,1.4705882,0,-158.11765)"
       cx="328"
       cy="330.56"
       fx="328"
       fy="330.56"
       r="17" />
    <radialGradient
       inkscape:collect="always"
       xlink:href="#linearGradient4283"
       id="radialGradient3201"
       gradientUnits="userSpaceOnUse"
       gradientTransform="matrix(1,0,0,0.6,0,155.2)"
       cx="385.80255"
       cy="384.87897"
       fx="385.80255"
       fy="384.87897"
       r="20" />
  </defs>
  <sodipodi:namedview
     id="base"
     pagecolor="#ffffff"
     bordercolor="#666666"
     borderopacity="1.0"
     inkscape:pageopacity="1"
     inkscape:pageshadow="2"
     inkscape:zoom="0.75538793"
     inkscape:cx="974.33381"
     inkscape:cy="267.91441"
     inkscape:document-units="px"
     inkscape:current-layer="layer7"
     showgrid="true"
     inkscape:window-width="1920"
     inkscape:window-height="1058"
     inkscape:window-x="-8"
     inkscape:window-y="192"
     inkscape:window-maximized="1"
     fit-margin-top="0"
     fit-margin-left="0"
     fit-margin-right="0"
     fit-margin-bottom="0"
     borderlayer="false">
    <inkscape:grid
       type="xygrid"
       id="grid2989"
       empspacing="8"
       visible="true"
       enabled="true"
       snapvisiblegridlinesonly="true"
       spacingx="8px"
       spacingy="8px" />
  </sodipodi:namedview>
  <metadata
     id="metadata7">
    <rdf:RDF>
      <cc:Work
         rdf:about="">
        <dc:format>image/svg+xml</dc:format>
        <dc:type
           rdf:resource="http://purl.org/dc/dcmitype/StillImage" />
        <dc:title />
      </cc:Work>
    </rdf:RDF>
  </metadata>
  <g
     inkscape:groupmode="layer"
     id="layer9"
     inkscape:label="Background"
     transform="translate(2176,-2.6171874e-6)">
    <rect
       transform="translate(0,-284.36218)"
       style="fill:#ffffff;fill-opacity:1;stroke:none;display:inline"
       id="mist-7"
       width="1856"
       height="512"
       x="-2176"
       y="284.36218"
       rx="96"
       ry="96" />
  </g>
  <g
     inkscape:groupmode="layer"
     id="layer8"
     inkscape:label="Layer 6"
     transform="translate(1088,-284.36218)">
    <use
       style="display:inline"
       x="0"
       y="0"
       xlink:href="#mist"
       id="use3891"
       width="744.09448"
       height="1052.3622" />
    <use
       style="display:inline"
       x="0"
       y="0"
       xlink:href="#monkey"
       id="use3894"
       transform="matrix(0.66666667,0,0,0.66666667,136,4.0096164)"
       width="744.09448"
       height="1052.3622" />
  </g>
  <g
     inkscape:label="Layer 5"
     id="g3897"
     inkscape:groupmode="layer"
     transform="translate(1088,-284.36218)">
    <use
       id="use3899"
       xlink:href="#mist"
       y="0"
       x="0"
       style="display:inline"
       width="744.09448"
       height="1052.3622" />
    <use
       id="use3901"
       xlink:href="#monkey"
       y="0"
       x="0"
       style="display:inline"
       transform="matrix(0.66666667,0,0,0.66666667,-104,20.009616)"
       width="744.09448"
       height="1052.3622" />
  </g>
  <g
     inkscape:groupmode="layer"
     id="g3903"
     inkscape:label="Layer 4"
     transform="translate(1088,-284.36218)">
    <use
       style="display:inline"
       x="0"
       y="0"
       xlink:href="#mist"
       id="use3905"
       width="744.09448"
       height="1052.3622" />
    <use
       style="display:inline"
       x="0"
       y="0"
       xlink:href="#monkey"
       id="use3907"
       transform="matrix(0.66666667,0,0,0.66666667,360,20.009612)"
       width="744.09448"
       height="1052.3622" />
  </g>
  <g
     inkscape:label="Layer 3"
     id="g3909"
     inkscape:groupmode="layer"
     transform="translate(1088,-284.36218)">
    <use
       id="use3911"
       xlink:href="#mist"
       y="0"
       x="0"
       style="display:inline"
       width="744.09448"
       height="1052.3622" />
    <use
       id="use3913"
       xlink:href="#monkey"
       y="0"
       x="0"
       style="display:inline"
       transform="matrix(0.83333333,0,0,0.83333333,224,10.004813)"
       width="744.09448"
       height="1052.3622" />
  </g>
  <g
     inkscape:groupmode="layer"
     id="g3915"
     inkscape:label="Layer 2"
     transform="translate(1088,-284.36218)">
    <use
       style="display:inline"
       x="0"
       y="0"
       xlink:href="#mist"
       id="use3917"
       width="744.09448"
       height="1052.3622" />
    <use
       style="display:inline"
       x="0"
       y="0"
       xlink:href="#monkey"
       id="use3919"
       transform="matrix(0.83333333,0,0,0.83333333,-96,-3.3285266)"
       width="744.09448"
       height="1052.3622" />
  </g>
  <g
     inkscape:label="Layer 1"
     inkscape:groupmode="layer"
     id="layer1"
     style="display:inline"
     transform="translate(1088,-284.36218)">
    <rect
       style="fill:#ffffff;fill-opacity:0.24705882;stroke:none"
       id="mist"
       width="1856"
       height="512"
       x="-1088"
       y="284.36218"
       rx="96"
       ry="96" />
    <g
       id="monkey"
       transform="translate(0,-304.33334)">
      <path
         transform="translate(16,-16)"
         d="m 304,924.36218 c 0,35.34623 -25.07205,64 -56,64 -30.92795,0 -56,-28.65377 -56,-64 0,-35.34622 25.07205,-64 56,-64 30.92795,0 56,28.65378 56,64 z"
         sodipodi:ry="64"
         sodipodi:rx="56"
         sodipodi:cy="924.36218"
         sodipodi:cx="248"
         id="path3765"
         style="fill:#b46c3f;fill-opacity:1;stroke:#000000;stroke-width:4;stroke-miterlimit:4;stroke-opacity:1;stroke-dasharray:none"
         sodipodi:type="arc" />
      <use
         x="0"
         y="0"
         xlink:href="#path4023"
         id="use4201"
         transform="matrix(0.4,0,0,0.46666667,110.4,476.99316)"
         width="768"
         height="768" />
      <path
         transform="translate(256,-16)"
         d="m 304,924.36218 c 0,35.34623 -25.07205,64 -56,64 -30.92795,0 -56,-28.65377 -56,-64 0,-35.34622 25.07205,-64 56,-64 30.92795,0 56,28.65378 56,64 z"
         sodipodi:ry="64"
         sodipodi:rx="56"
         sodipodi:cy="924.36218"
         sodipodi:cx="248"
         id="path3765-1"
         style="fill:#b46c3f;fill-opacity:1;stroke:#000000;stroke-width:4;stroke-miterlimit:4;stroke-opacity:1;stroke-dasharray:none"
         sodipodi:type="arc" />
      <use
         x="0"
         y="0"
         xlink:href="#path4023"
         id="use4203"
         transform="matrix(0.39999999,0,0,0.46666665,350.4,476.99318)"
         width="768"
         height="768" />
      <path
         d="m 512,924.36218 c 0,70.69245 -57.30755,128.00002 -128,128.00002 -70.69245,0 -128,-57.30757 -128,-128.00002 0,-70.69245 57.30755,-128 128,-128 70.69245,0 128,57.30755 128,128 z"
         sodipodi:ry="128"
         sodipodi:rx="128"
         sodipodi:cy="924.36218"
         sodipodi:cx="384"
         id="path2991"
         style="fill:#b46c3f;fill-opacity:1;stroke:#000000;stroke-width:4;stroke-miterlimit:4;stroke-opacity:1;stroke-dasharray:none"
         sodipodi:type="arc" />
      <path
         sodipodi:type="arc"
         style="fill:url(#linearGradient3197);fill-opacity:1;stroke:none"
         id="path4023"
         sodipodi:cx="384"
         sodipodi:cy="352"
         sodipodi:rx="120"
         sodipodi:ry="120"
         d="m 504,352 c 0,66.27417 -53.72583,120 -120,120 -66.27417,0 -120,-53.72583 -120,-120 0,-66.27417 53.72583,-120 120,-120 66.2554,0 119.97345,53.69654 119.99999,119.95194 L 384,352 z"
         transform="matrix(1.0666667,0,0,1,-25.600018,572.36218)"
         sodipodi:start="0"
         sodipodi:end="6.2827848" />
      <path
         sodipodi:nodetypes="czczc"
         inkscape:connector-curvature="0"
         id="path2993"
         d="m 328,980.36218 c 0,0 30.11327,33.83972 56,32.00002 25.88673,-1.8397 72,-56.00002 72,-56.00002 0,0 -48.71886,37.32497 -72,40 -23.28114,2.67503 -56,-16 -56,-16 z"
         style="fill:#ffffff;fill-opacity:0.49803922;stroke:#000000;stroke-width:4;stroke-linecap:butt;stroke-linejoin:round;stroke-miterlimit:4;stroke-opacity:1;stroke-dasharray:none" />
      <path
         sodipodi:nodetypes="cccccc"
         inkscape:connector-curvature="0"
         id="path2995"
         d="m 256,868.36218 64,-8 48,32 8,-32 -56,-16 z"
         style="fill:#2b1600;fill-opacity:1;stroke:#000000;stroke-width:2;stroke-linecap:butt;stroke-linejoin:round;stroke-miterlimit:4;stroke-opacity:1;stroke-dasharray:none" />
      <path
         sodipodi:type="arc"
         style="fill:url(#radialGradient3199);fill-opacity:1;stroke:#000000;stroke-width:2;stroke-miterlimit:4;stroke-opacity:1;stroke-dasharray:none"
         id="path3952"
         sodipodi:cx="336"
         sodipodi:cy="336"
         sodipodi:rx="16"
         sodipodi:ry="24"
         d="m 352,336 c 0,13.25483 -7.16344,24 -16,24 -8.83656,0 -16,-10.74517 -16,-24 0,-13.25483 7.16344,-24 16,-24 8.83656,0 16,10.74517 16,24 z"
         transform="translate(0,572.36218)" />
      <path
         sodipodi:nodetypes="cccccc"
         inkscape:connector-curvature="0"
         id="path2995-4"
         d="m 400,892.36218 48,-40 64,16 -64,-32 -56,24 z"
         style="fill:#2b1600;fill-opacity:1;stroke:#000000;stroke-width:2;stroke-linecap:butt;stroke-linejoin:round;stroke-miterlimit:4;stroke-opacity:1;stroke-dasharray:none;display:inline" />
      <use
         x="0"
         y="0"
         xlink:href="#path3952"
         id="use4021"
         transform="translate(96,0)"
         width="768"
         height="768" />
      <path
         sodipodi:type="arc"
         style="fill:url(#radialGradient3201);fill-opacity:1;stroke:#000000;stroke-width:2.73861289;stroke-miterlimit:4;stroke-opacity:1;stroke-dasharray:none"
         id="path4281"
         sodipodi:cx="388"
         sodipodi:cy="388"
         sodipodi:rx="20"
         sodipodi:ry="12"
         d="m 408,388 c 0,6.62742 -8.95431,12 -20,12 -11.04569,0 -20,-5.37258 -20,-12 0,-6.62742 8.95431,-12 20,-12 11.04569,0 20,5.37258 20,12 z"
         transform="matrix(0.8,0,0,0.66666667,73.6,697.69551)" />
    </g>
  </g>
  <g
     inkscape:groupmode="layer"
     id="layer7"
     inkscape:label="Text"
     transform="translate(1088,-284.36218)">
    <g
       style="font-size:230px;font-style:normal;font-variant:normal;font-weight:bold;font-stretch:normal;text-align:center;line-height:80.00000119%;letter-spacing:40px;word-spacing:0px;text-anchor:middle;fill:#000000;fill-opacity:1;stroke:none;display:inline;font-family:Familiar Pro;-inkscape-font-specification:Familiar Pro Bold"
       id="text2985">
      <path
         d="m -1050.0846,407.96893 0,121.20844 31.9695,0 0,-58.87924 c -0.345,-14.91141 0.7475,-25.22293 3.2775,-30.93461 2.5299,-5.7115 8.5673,-8.43312 18.11226,-8.16489 8.81648,-0.11011 14.18307,1.95028 16.0998,6.18117 1.91655,4.23108 2.68321,11.2939 2.29997,21.18848 l 0,70.60909 31.96959,0 0,-57.95926 c -0.36428,-13.84287 0.70904,-23.99149 3.21995,-30.44586 2.51068,-6.45419 8.64393,-9.6454 18.39977,-9.57362 7.19684,-0.13886 12.06511,1.74903 14.60481,5.66368 2.53939,3.91483 3.7277,10.69015 3.56495,20.32599 l 0,71.98907 31.96959,0 0,-81.64895 c 0.34002,-13.04265 -2.23787,-23.35418 -7.73365,-30.93461 -5.49615,-7.5802 -15.95142,-11.45181 -31.36585,-11.61484 -11.23166,0.20616 -19.47321,2.03656 -24.72468,5.49118 -5.25172,3.45486 -9.12333,7.29772 -11.61485,11.5286 -3.02841,-5.84086 -7.03418,-10.14371 -12.01735,-12.90859 -4.98336,-2.76463 -12.0941,-4.13503 -21.33222,-4.11119 -8.7735,-0.043 -16.06631,1.19323 -21.87849,3.7087 -5.8122,2.51571 -10.6326,6.56941 -14.461,12.16109 l 0,-12.87983 z"
         style=""
         id="path3031" />
      <path
         d="m -687.70164,468.45815 c -0.096,-21.77297 -5.48172,-37.85358 -16.15729,-48.24188 -10.6758,-10.38808 -26.06642,-15.54385 -46.1719,-15.4673 -20.09605,-0.0765 -35.44834,5.07922 -46.05692,15.4673 -10.60863,10.3883 -15.95605,26.46891 -16.04229,48.24188 0.6229,25.19429 7.02448,42.25239 19.20475,51.17434 12.18022,8.92197 26.40169,13.10024 42.66446,12.53484 19.91382,0.11979 35.28527,-4.94973 46.1144,-15.20856 10.8289,-10.25881 16.31049,-26.42566 16.44479,-48.50062 z m -32.88957,-0.23 c 0.10531,14.04903 -2.11799,23.90056 -6.66992,29.55462 -4.55211,5.65412 -12.06534,8.37575 -22.53971,8.1649 -10.68534,0.19169 -18.2944,-2.54911 -22.82721,-8.2224 -4.5329,-5.67322 -6.73704,-15.42892 -6.61241,-29.26712 -0.11982,-13.73746 2.07473,-23.46441 6.58367,-29.18088 4.50885,-5.71628 12.05083,-8.48583 22.62596,-8.30864 10.88644,-0.14364 18.553,2.67382 22.9997,8.4524 4.44651,5.77876 6.59315,15.38112 6.43992,28.80712 z"
         style=""
         id="path3033" />
      <path
         d="m -546.42566,529.17737 31.96959,0 0,-74.05905 c 0.31132,-18.18884 -2.32406,-31.14532 -7.90615,-38.8695 -5.58233,-7.72395 -15.98011,-11.48056 -31.19335,-11.26985 -10.90097,0.0433 -19.34377,1.68197 -25.32842,4.91618 -5.98477,3.23445 -11.03512,7.80564 -15.15106,13.71358 l 0,-15.6398 -30.35961,0 0,121.20844 31.96959,0 0,-57.49926 c -0.369,-14.16392 1.0014,-24.47544 4.1112,-30.93461 3.1097,-6.45899 10.17251,-9.64061 21.18847,-9.54487 9.81792,0.0145 15.82658,2.40069 18.02602,7.15866 2.19925,4.75815 3.09049,11.8018 2.67372,21.13098 z"
         style=""
         id="path3035" />
      <path
         d="m -443.3292,529.17737 31.96959,0 0,-38.40951 13.79983,-14.25981 29.43962,52.66932 37.02952,0 -43.92943,-75.20903 42.31945,-45.99941 -39.32949,0 -39.3295,44.84942 0,-88.54886 -31.96959,0 z"
         style=""
         id="path3037" />
      <path
         d="m -204.46276,494.44782 c -1.59569,4.50414 -4.26941,7.57076 -8.02115,9.19988 -3.75191,1.62917 -8.66809,2.39582 -14.74856,2.29997 -8.81182,0.24918 -15.05048,-1.62913 -18.71601,-5.63493 -3.66562,-4.00575 -5.70684,-11.63398 -6.12367,-22.88471 l 81.64895,0 c 0.35925,-26.06146 -3.52195,-44.71995 -11.6436,-55.97553 -8.12188,-11.25536 -22.64042,-16.74653 -43.55569,-16.47353 -24.40848,0.42657 -40.56576,6.47357 -48.47188,18.14102 -7.90616,11.66765 -11.52861,26.39703 -10.86736,44.18817 0.0719,25.44346 5.04555,42.75072 14.92106,51.92184 9.87547,9.17113 24.22152,13.48357 43.0382,12.93733 16.4447,0.1677 29.26702,-2.64017 38.467,-8.42364 9.19977,-5.78346 14.7772,-15.54874 16.73229,-29.29587 l -32.65958,0 z m -47.37939,-37.25952 c 0.36412,-9.63584 2.28076,-16.41117 5.74992,-20.326 3.46908,-3.91464 9.75566,-5.80253 18.85976,-5.66367 7.38859,-0.29698 13.19601,1.27466 17.42228,4.71494 4.22611,3.44046 6.69857,10.53203 7.4174,21.27473 z"
         style=""
         id="path3039" />
      <path
         d="m -120.84433,407.96893 c 5.74033,20.70942 12.3719,41.44746 19.89474,62.21419 7.522789,20.76686 15.994339,41.5049 25.414673,62.21421 -1.969398,8.98424 -5.045607,14.64791 -9.228636,16.99103 -4.183105,2.34307 -9.386781,3.34931 -15.611047,3.01871 -1.22667,-0.0192 -2.39583,-0.0959 -3.50746,-0.23 -1.11167,-0.13419 -1.70582,-0.21085 -1.78247,-0.22999 l 0,25.06967 c 0.12457,0.0383 1.71538,0.19162 4.77244,0.46 3.057023,0.26828 6.832803,0.42161 11.327354,0.45999 14.015396,0.3689 23.934008,-2.95647 29.755865,-9.97612 5.821732,-7.01974 11.7729,-19.94747 17.853522,-38.78325 l 43.2394433,-121.20844 -33.5795673,0 -26.44966,88.31886 c -11.959898,-29.43956 -20.929774,-58.87915 -26.909653,-88.31886 z"
         style=""
         id="path3041" />
      <path
         d="m -966.68721,675.91785 c 1.03498,14.75816 6.8424,25.20385 17.42227,31.33709 10.57983,6.13326 23.86214,9.10405 39.84699,8.91239 16.77054,0.115 30.03369,-2.98996 39.78949,-9.31488 9.75559,-6.32491 14.73885,-16.55976 14.9498,-30.7046 -1.2e-4,-10.05275 -2.76008,-17.66181 -8.27989,-22.82721 -5.52003,-5.16529 -13.79992,-8.9794 -24.83968,-11.44235 l -29.89961,-7.12991 c -4.98333,-1.21699 -8.47161,-2.69281 -10.46487,-4.42745 -1.99336,-1.73448 -2.95168,-4.01527 -2.87496,-6.8424 -0.18691,-3.46904 1.16432,-6.13317 4.0537,-7.9924 2.88929,-1.85905 8.43796,-2.7982 16.64603,-2.81747 7.17297,-0.10052 12.14665,0.84822 14.92106,2.84622 2.77425,1.99819 4.47048,5.64939 5.08868,10.95361 l 31.96959,0 c -0.99677,-14.4418 -6.07587,-24.36999 -15.23731,-29.78462 -9.16164,-5.4144 -21.25564,-7.98269 -36.28203,-7.7049 -19.11854,0.0576 -32.80335,3.33508 -41.05447,9.83238 -8.25116,6.49752 -12.27611,15.86989 -12.07484,28.11713 0.0815,10.47452 2.621,18.16025 7.61865,23.0572 4.99762,4.89708 11.96461,8.32787 20.90098,10.29237 l 33.57957,8.0499 c 5.42402,1.3944 9.18063,2.97563 11.26985,4.74369 2.08906,1.76814 3.08571,4.32685 2.98997,7.67615 0.11012,4.21185 -1.54778,7.23055 -4.97369,9.05613 -3.42608,1.82562 -9.28141,2.71686 -17.56602,2.67372 -8.5387,0.12939 -14.80612,-0.99184 -18.80227,-3.36371 -3.99624,-2.37182 -6.2387,-6.77051 -6.72741,-13.19608 z"
         style=""
         id="path3043" />
      <path
         d="m -734.2607,713.17737 17.24978,-77.969 17.70977,77.969 34.26956,0 c 8.01141,-20.23014 14.98798,-40.43152 20.92973,-60.60422 5.94142,-20.17258 11.07802,-40.37397 15.4098,-60.60422 l -32.42958,0 c -1.83533,14.13534 -4.43237,28.24181 -7.79115,42.31946 -3.35905,14.0778 -7.50857,28.18427 -12.44859,42.31945 l -19.31975,-84.63891 -31.73959,0 -18.85976,84.63891 c -4.82999,-14.13519 -8.91244,-28.24166 -12.24735,-42.31945 -3.335,-14.07764 -5.92246,-28.18411 -7.76239,-42.31946 l -33.11958,0 c 4.13036,20.23026 9.15196,40.43164 15.06481,60.60422 5.91281,20.17269 12.77438,40.37408 20.58473,60.60422 z"
         style=""
         id="path3045" />
      <path
         d="m -546.06124,628.76846 c 0.57495,-5.11256 2.24243,-8.74459 5.00244,-10.89612 2.75991,-2.15133 7.99234,-3.1959 15.69729,-3.1337 7.40296,-0.10053 12.72163,0.90571 15.95604,3.01871 3.23425,2.11319 4.81548,5.93689 4.74369,11.4711 l 0,7.35991 -40.01948,6.20992 c -9.21429,1.18359 -17.29293,4.79646 -24.23594,10.83861 -6.94305,6.04227 -10.59425,15.69255 -10.95361,28.95087 -0.1725,10.45531 2.75996,18.63936 8.79739,24.55219 6.0374,5.91284 16.21476,8.92197 30.53211,9.02738 9.61669,-0.10541 17.46533,-1.33206 23.54594,-3.67995 6.08047,-2.34789 10.65166,-5.18451 13.71358,-8.50989 l 0,9.19988 30.5896,0 0,-88.77886 c -0.0384,-13.04744 -4.38922,-22.25689 -13.05233,-27.62839 -8.66332,-5.37127 -21.40897,-7.96832 -38.23701,-7.79115 -16.36338,-0.29696 -28.94612,2.42467 -37.74826,8.16489 -8.80219,5.74045 -13.62254,16.28197 -14.46107,31.6246 z m 41.39946,38.17951 c 0.20596,7.60431 -1.4136,13.72797 -4.85869,18.37101 -3.44524,4.64309 -9.95223,7.02931 -19.52099,7.15866 -7.02455,-0.0191 -11.95032,-1.2458 -14.77732,-3.67996 -2.82709,-2.4341 -4.1879,-5.96072 -4.08244,-10.57986 0.11017,-6.23863 2.07473,-10.49357 5.89368,-12.76484 3.81886,-2.27117 8.83087,-3.76615 15.03605,-4.48494 l 22.30971,-3.67995 z"
         style=""
         id="path3047" />
      <path
         d="m -372.28397,713.17737 0,-44.84942 c -0.43129,-14.08726 1.00619,-25.5871 4.31244,-34.49956 3.30616,-8.9123 11.06855,-13.51223 23.2872,-13.79982 3.23905,0.0288 5.73068,0.14384 7.4749,0.34499 1.74406,0.20134 2.62572,0.31634 2.64497,0.345 l 0,-30.5896 c 0.0143,-0.0286 -0.64695,-0.14363 -1.98373,-0.345 -1.33694,-0.20113 -3.43566,-0.31613 -6.29616,-0.345 -7.78643,-0.0526 -14.06343,1.31782 -18.83101,4.1112 -4.7677,2.79363 -8.91723,7.32648 -12.44859,13.59858 l 0,-15.17981 -30.12961,0 0,121.20844 z"
         style=""
         id="path3049" />
      <path
         d="m -275.31902,591.96893 0,121.20844 31.96958,0 0,-58.87924 c -0.34504,-14.9114 0.74745,-25.22293 3.27746,-30.93461 2.52991,-5.71149 8.56733,-8.43312 18.11227,-8.16489 8.81648,-0.11011 14.18307,1.95028 16.09979,6.18117 1.91656,4.23108 2.68321,11.2939 2.29997,21.18848 l 0,70.60909 31.96959,0 0,-57.95925 c -0.36428,-13.84288 0.70904,-23.99149 3.21996,-30.44587 2.51067,-6.45419 8.64392,-9.6454 18.39976,-9.57362 7.19685,-0.13885 12.06511,1.74904 14.60481,5.66368 2.53939,3.91484 3.72771,10.69016 3.56496,20.32599 l 0,71.98907 31.969586,0 0,-81.64895 c 0.340014,-13.04265 -2.237866,-23.35418 -7.733656,-30.9346 -5.49615,-7.5802 -15.95142,-11.45182 -31.36584,-11.61485 -11.23166,0.20617 -19.47322,2.03656 -24.72469,5.49118 -5.25172,3.45486 -9.12333,7.29772 -11.61484,11.5286 -3.02841,-5.84085 -7.03419,-10.14371 -12.01735,-12.90858 -4.98337,-2.76464 -12.0941,-4.13503 -21.33222,-4.1112 -8.7735,-0.043 -16.06632,1.19323 -21.87847,3.7087 -5.81227,2.51572 -10.63262,6.56941 -14.46107,12.1611 l 0,-12.87984 z"
         style=""
         id="path3051" />
    </g>
  </g>
</svg>