<?xml version="1.0" encoding="UTF-8" standalone="no"?>
<!-- Created with Inkscape (http://www.inkscape.org/) -->

<svg
   xmlns:dc="http://purl.org/dc/elements/1.1/"
   xmlns:cc="http://creativecommons.org/ns#"
   xmlns:rdf="http://www.w3.org/1999/02/22-rdf-syntax-ns#"
   xmlns:svg="http://www.w3.org/2000/svg"
   xmlns="http://www.w3.org/2000/svg"
   xmlns:xlink="http://www.w3.org/1999/xlink"
   xmlns:sodipodi="http://sodipodi.sourceforge.net/DTD/sodipodi-0.dtd"
   xmlns:inkscape="http://www.inkscape.org/namespaces/inkscape"
   width="422"
   viewbox="0 0 422 114"
   height="114"
   id="svg3203"
   version="1.1"
   inkscape:version="0.48.2 r9819"
   sodipodi:docname="officemon-name.svg">
  <defs
     id="defs3205" />
  <sodipodi:namedview
     id="base"
     pagecolor="#ffffff"
     bordercolor="#666666"
     borderopacity="1.0"
     inkscape:pageopacity="0.0"
     inkscape:pageshadow="2"
     inkscape:zoom="4.6984062"
     inkscape:cx="293.47578"
     inkscape:cy="33.896753"
     inkscape:document-units="px"
     inkscape:current-layer="g4089"
     showgrid="true"
     fit-margin-top="1"
     fit-margin-left="1"
     fit-margin-right="1"
     fit-margin-bottom="1"
     inkscape:window-width="1920"
     inkscape:window-height="1058"
     inkscape:window-x="-8"
     inkscape:window-y="192"
     inkscape:window-maximized="1">
    <inkscape:grid
       type="xygrid"
       id="grid3233"
       empspacing="4"
       visible="true"
       enabled="true"
       snapvisiblegridlinesonly="true"
       spacingx="4px"
       spacingy="4px" />
  </sodipodi:namedview>
  <metadata
     id="metadata3208">
    <rdf:RDF>
      <cc:Work
         rdf:about="">
        <dc:format>image/svg+xml</dc:format>
        <dc:type
           rdf:resource="http://purl.org/dc/dcmitype/StillImage" />
        <dc:title></dc:title>
      </cc:Work>
    </rdf:RDF>
  </metadata>
  <g
     inkscape:label="Layer 1"
     inkscape:groupmode="layer"
     id="layer1"
     transform="translate(-65.763757,-613.35706)">
    <g
       style="font-size:144px;font-style:normal;font-variant:normal;font-weight:normal;font-stretch:normal;text-align:start;line-height:125%;letter-spacing:0px;word-spacing:0px;writing-mode:lr-tb;text-anchor:start;fill:#000000;fill-opacity:1;stroke:none;font-family:Birch Std;-inkscape-font-specification:Birch Std"
       id="text3211">
      <path
         d="m 86.040845,615.79216 c -5.676387,0.24722 -9.891439,3.12895 -12.645169,8.64522 -2.753751,5.51647 -4.547505,12.18482 -5.381267,20.00508 -0.833772,7.82041 -1.208878,15.31009 -1.125318,22.46904 -0.08356,9.27015 0.291549,18.21759 1.125318,26.84232 0.833759,8.6248 2.627511,15.73759 5.38126,21.3384 2.753729,5.60082 6.968783,8.50033 12.645176,8.69855 5.723453,-0.19822 9.972283,-3.09773 12.746501,-8.69855 2.774144,-5.60081 4.580344,-12.7136 5.418594,-21.3384 0.83817,-8.62473 1.21505,-17.57217 1.13066,-26.84232 0.0844,-7.15895 -0.29249,-14.64863 -1.13066,-22.46904 -0.83825,-7.82026 -2.64445,-14.48861 -5.418594,-20.00508 -2.774218,-5.51627 -7.023048,-8.398 -12.746501,-8.64522 z m 0,7.19991 c 2.201944,-0.1619 3.989918,3.18606 5.363929,10.04387 1.373953,6.858 2.081944,18.19784 2.123975,34.01956 -0.04203,18.4438 -0.750021,31.37962 -2.123973,38.8075 -1.374009,7.42791 -3.161984,11.00387 -5.363931,10.72786 -2.132994,0.27601 -3.878971,-3.29994 -5.237936,-10.72786 -1.359001,-7.42788 -2.06099,-20.3637 -2.10597,-38.8075 0.04499,-15.82172 0.746977,-27.16157 2.105977,-34.01956 1.358963,-6.85782 3.104938,-10.20577 5.237929,-10.04387 z"
         style=""
         id="path4162" />
      <path
         d="m 125.39119,652.51169 c 0.012,-0.44092 0.13198,-0.89092 0.35999,-1.34999 0.22798,-0.45892 0.49198,-0.87291 0.79199,-1.24198 l 4.31995,-4.46394 c 0.42297,-0.38692 0.62096,-0.76491 0.59399,-1.13399 -0.027,-0.36891 -0.22502,-0.56691 -0.59399,-0.59399 l -4.31995,0 c -0.48901,8e-5 -0.80701,-0.10792 -0.95399,-0.324 -0.14702,-0.21591 -0.21301,-0.53991 -0.19799,-0.97198 l 0,-14.39982 c -0.012,-1.70088 0.26398,-3.12286 0.82799,-4.26594 0.56397,-1.14289 1.48796,-1.73688 2.77196,-1.78198 1.45196,0.0511 2.86794,0.6331 4.24794,1.74598 1.37996,1.11308 2.65194,2.45107 3.81596,4.01395 0.21297,0.30009 0.43496,0.56408 0.66599,0.79199 0.23097,0.22809 0.48896,0.34809 0.77399,0.35999 0.14997,-0.009 0.28196,-0.0989 0.39599,-0.26999 0.11397,-0.17091 0.17397,-0.3689 0.18,-0.594 -0.048,-2.90386 -1.06802,-5.62782 -3.05996,-8.17189 -1.992,-2.54386 -4.66797,-3.89984 -8.0279,-4.06795 -3.48897,-0.0149 -6.44693,1.1671 -8.87389,3.54596 -2.42697,2.37907 -3.69295,6.04502 -3.79794,10.99785 l 0,12.09585 c 0.006,0.43207 -0.078,0.75607 -0.252,0.97199 -0.174,0.21607 -0.474,0.32407 -0.89999,0.32399 l -4.46394,0 c -0.369,0.0271 -0.56699,0.22508 -0.59399,0.594 -0.027,0.36907 0.17099,0.74707 0.59399,1.13398 l 4.31994,4.46394 c 0.306,0.36907 0.59399,0.78307 0.86399,1.24199 0.26999,0.45907 0.41399,0.90906 0.432,1.34998 l 0,63.35918 c 0.006,0.28801 -0.006,0.54 -0.036,0.75599 -0.03,0.21601 -0.114,0.39601 -0.25199,0.54 l -4.46394,5.03993 c -0.213,0.15 -0.363,0.318 -0.45,0.50399 -0.087,0.186 -0.129,0.354 -0.126,0.504 0,0.40799 0.288,0.59999 0.86399,0.57599 l 19.72775,0 c 0.22497,0.003 0.42297,-0.039 0.59399,-0.126 0.17098,-0.087 0.26097,-0.23699 0.27,-0.44999 -0.006,-0.15 -0.066,-0.318 -0.18,-0.504 -0.11402,-0.18599 -0.24602,-0.35399 -0.39599,-0.50399 l -5.32794,-5.03993 c -0.12001,-0.28799 -0.16801,-0.71999 -0.14399,-1.29599 z"
         style=""
         id="path4164" />
      <path
         d="m 149.01619,652.51169 c 0.012,-0.44092 0.13198,-0.89092 0.35999,-1.34999 0.22798,-0.45892 0.49198,-0.87291 0.79199,-1.24198 l 4.31995,-4.46394 c 0.42297,-0.38692 0.62096,-0.76491 0.59399,-1.13399 -0.027,-0.36891 -0.22502,-0.56691 -0.59399,-0.59399 l -4.31995,0 c -0.48901,8e-5 -0.80701,-0.10792 -0.95399,-0.324 -0.14702,-0.21591 -0.21301,-0.53991 -0.19799,-0.97198 l 0,-14.39982 c -0.012,-1.70088 0.26398,-3.12286 0.82799,-4.26594 0.56397,-1.14289 1.48796,-1.73688 2.77196,-1.78198 1.45196,0.0511 2.86794,0.6331 4.24794,1.74598 1.37996,1.11308 2.65194,2.45107 3.81596,4.01395 0.21297,0.30009 0.43496,0.56408 0.66599,0.79199 0.23097,0.22809 0.48896,0.34809 0.77399,0.35999 0.14997,-0.009 0.28196,-0.0989 0.39599,-0.26999 0.11397,-0.17091 0.17397,-0.3689 0.18,-0.594 -0.048,-2.90386 -1.06802,-5.62782 -3.05996,-8.17189 -1.992,-2.54386 -4.66797,-3.89984 -8.0279,-4.06795 -3.48897,-0.0149 -6.44693,1.1671 -8.87389,3.54596 -2.42697,2.37907 -3.69295,6.04502 -3.79794,10.99785 l 0,12.09585 c 0.006,0.43207 -0.078,0.75607 -0.252,0.97199 -0.174,0.21607 -0.474,0.32407 -0.89999,0.32399 l -4.46394,0 c -0.369,0.0271 -0.56699,0.22508 -0.59399,0.594 -0.027,0.36907 0.17099,0.74707 0.59399,1.13398 l 4.31994,4.46394 c 0.306,0.36907 0.59399,0.78307 0.86399,1.24199 0.26999,0.45907 0.41399,0.90906 0.432,1.34998 l 0,63.35918 c 0.006,0.28801 -0.006,0.54 -0.036,0.75599 -0.03,0.21601 -0.114,0.39601 -0.25199,0.54 l -4.46394,5.03993 c -0.213,0.15 -0.363,0.318 -0.45,0.50399 -0.087,0.186 -0.129,0.354 -0.126,0.504 0,0.40799 0.288,0.59999 0.86399,0.57599 l 19.72775,0 c 0.22497,0.003 0.42297,-0.039 0.59399,-0.126 0.17098,-0.087 0.26097,-0.23699 0.27,-0.44999 -0.006,-0.15 -0.066,-0.318 -0.18,-0.504 -0.11402,-0.18599 -0.24602,-0.35399 -0.39599,-0.50399 l -5.32794,-5.03993 c -0.12001,-0.28799 -0.16801,-0.71999 -0.14399,-1.29599 z"
         style=""
         id="path4166" />
      <path
         d="m 162.56132,715.87087 c 0.006,0.28801 -0.006,0.54 -0.036,0.75599 -0.03,0.21601 -0.114,0.39601 -0.25199,0.54 l -4.46394,5.03993 c -0.15,0.15 -0.282,0.318 -0.396,0.50399 -0.114,0.186 -0.174,0.354 -0.18,0.504 0.009,0.213 0.099,0.36299 0.27,0.44999 0.171,0.087 0.369,0.129 0.59399,0.126 l 19.00776,0 c 0.57597,0.024 0.86397,-0.16799 0.86399,-0.57599 -0.006,-0.15 -0.066,-0.318 -0.18,-0.504 -0.11402,-0.18599 -0.24602,-0.35399 -0.396,-0.50399 l -4.46394,-5.03993 c -0.13801,-0.14399 -0.22201,-0.32399 -0.252,-0.54 -0.03,-0.21599 -0.042,-0.46799 -0.036,-0.75599 l 0,-71.27908 c -0.024,-0.57591 -0.26402,-0.86391 -0.71999,-0.86399 l -13.82383,0 c -0.22499,-0.003 -0.42299,0.0391 -0.59399,0.126 -0.171,0.0871 -0.261,0.23708 -0.27,0.44999 0.006,0.14708 0.066,0.32108 0.18,0.522 0.114,0.20107 0.246,0.41107 0.396,0.62999 l 4.31994,4.03195 c 0.14399,0.13807 0.25199,0.29407 0.32399,0.46799 0.072,0.17407 0.108,0.40207 0.10801,0.68399 z m 4.89593,-100.07871 c -1.54499,0.0751 -2.81097,0.8611 -3.79795,2.35797 -0.987,1.49708 -1.49699,3.25506 -1.52998,5.27393 0.033,1.95607 0.54299,3.69605 1.52998,5.21993 0.98698,1.52408 2.25296,2.32807 3.79795,2.41198 1.47597,-0.0839 2.69995,-0.8879 3.67195,-2.41197 0.97197,-1.52389 1.47597,-3.26386 1.51199,-5.21994 -0.036,-2.01887 -0.54001,-3.77685 -1.51199,-5.27393 -0.972,-1.49688 -2.19598,-2.28286 -3.67195,-2.35797 z"
         style=""
         id="path4168" />
      <path
         d="m 182.4761,680.59133 c -0.012,15.02983 1.37997,26.00968 4.17594,32.93957 2.79595,6.92992 7.06789,10.34987 12.81584,10.25987 3.69592,-0.168 6.52789,-1.66798 8.49589,-4.49994 1.96794,-2.83196 3.35992,-5.98791 4.17594,-9.46788 0.072,-0.29398 0.072,-0.53398 0,-0.71999 -0.072,-0.18598 -0.21603,-0.28198 -0.43199,-0.288 -0.43203,0.024 -0.86402,0.40802 -1.29598,1.15199 -1.16102,2.08199 -2.547,3.85796 -4.15795,5.32793 -1.61101,1.46999 -3.39298,2.23798 -5.34593,2.30397 -2.37899,0.312 -4.17297,-2.14796 -5.38194,-7.37991 -1.209,-5.23191 -1.81499,-15.10777 -1.81797,-29.62761 -0.045,-12.05079 0.40498,-20.24068 1.34998,-24.56969 0.94497,-4.32887 2.65495,-6.36284 5.12994,-6.10192 1.88995,-0.003 3.61792,0.72307 5.18393,2.17798 1.56595,1.45505 3.29393,3.65702 5.18393,6.60591 0.28797,0.45606 0.57596,0.69605 0.86399,0.71999 0.21597,-0.0119 0.35997,-0.13193 0.432,-0.36 0.072,-0.22793 0.072,-0.49193 0,-0.79198 -0.68703,-3.75589 -2.01301,-7.07984 -3.97795,-9.97188 -1.965,-2.89189 -4.76697,-4.41586 -8.40589,-4.57194 -5.36995,0.0421 -9.53389,3.19804 -12.49184,9.46788 -2.95797,6.26999 -4.45795,15.40186 -4.49994,27.39565 z"
         style=""
         id="path4170" />
      <path
         d="m 229.70795,681.45532 19.43975,0 c 0.49496,-0.009 0.83695,-0.17096 1.02599,-0.486 0.18896,-0.31495 0.27896,-0.72894 0.26999,-1.24198 l 0,-8.92789 c -0.12603,-10.3258 -1.67401,-17.4657 -4.64394,-21.41972 -2.96999,-3.95388 -6.60594,-5.83785 -10.90786,-5.65193 -5.09395,0.0841 -9.08989,3.15604 -11.98785,9.21588 -2.89796,6.05999 -4.37394,14.60387 -4.42793,25.63167 -0.045,15.99583 1.41297,27.56367 4.37394,34.70356 2.96095,7.13991 7.69488,10.64386 14.20182,10.51186 3.53092,-0.102 6.40488,-1.37398 8.62188,-3.81595 2.21694,-2.44197 3.75892,-5.44192 4.62595,-8.99988 0.14396,-0.57598 -4e-5,-0.86398 -0.432,-0.86399 -0.40803,0.024 -0.74403,0.26401 -1.00799,0.71999 -1.44601,2.23498 -2.90999,3.92096 -4.39194,5.05793 -1.48201,1.13699 -3.37799,1.70699 -5.68793,1.70998 -3.27598,0.09 -5.61595,-1.81797 -7.01991,-5.72393 -1.40399,-3.90593 -2.08798,-10.34984 -2.05197,-19.33175 z m 0,-5.47193 0,-14.39982 c -0.018,-3.82488 0.37798,-6.72285 1.18799,-8.69389 0.80997,-1.9709 2.14195,-2.96089 3.99594,-2.96996 1.73996,0.009 3.08394,0.99906 4.03195,2.96997 0.94796,1.97104 1.42796,4.869 1.43998,8.69388 l 0,14.39982 z"
         style=""
         id="path4172" />
      <path
         d="m 256.69911,615.79216 c -0.288,0.0121 -0.504,0.0961 -0.64799,0.252 -0.14401,0.15611 -0.216,0.3121 -0.216,0.46799 0.024,0.2851 0.156,0.5431 0.396,0.77399 0.23999,0.23111 0.44399,0.4531 0.61199,0.66599 l 3.59995,4.17595 c 0.43199,0.56409 0.75599,1.16409 0.97199,1.79998 0.21599,0.63608 0.32399,1.38007 0.324,2.23197 l 0,87.26287 c -1e-5,0.852 -0.10801,1.59599 -0.324,2.23197 -0.21601,0.636 -0.54,1.23599 -0.97199,1.79998 l -3.59995,4.17595 c -0.168,0.213 -0.372,0.435 -0.612,0.66599 -0.24,0.231 -0.372,0.489 -0.39599,0.77399 0,0.156 0.072,0.312 0.216,0.46799 0.14399,0.156 0.35999,0.24 0.64799,0.252 l 17.71177,0 c 0.28798,-0.012 0.50397,-0.096 0.64799,-0.252 0.14398,-0.15599 0.21598,-0.31199 0.216,-0.46799 -0.015,-0.28199 -0.12902,-0.54599 -0.342,-0.79199 -0.21301,-0.246 -0.43501,-0.50999 -0.66599,-0.79199 l -3.02396,-3.88795 c -0.42001,-0.56998 -0.69601,-1.19397 -0.82799,-1.87197 -0.13201,-0.67799 -0.19201,-1.44598 -0.17999,-2.30398 l 0,-69.6951 0.28799,0 11.66385,78.76699 c 0.066,0.36899 0.14997,0.67499 0.252,0.91798 0.10197,0.243 0.25797,0.369 0.46799,0.378 l 3.16796,0 c 0.35396,-0.003 0.61796,-0.105 0.79199,-0.306 0.17397,-0.201 0.29397,-0.48299 0.36,-0.84598 l 10.94386,-78.91099 0.28799,0 0,69.6951 c 0.012,0.858 -0.048,1.62599 -0.18,2.30398 -0.13204,0.67799 -0.40804,1.30198 -0.82798,1.87197 l -3.02397,3.88795 c -0.23103,0.282 -0.45303,0.546 -0.66599,0.79199 -0.21304,0.246 -0.32703,0.50999 -0.34199,0.79199 -0.009,0.156 0.045,0.312 0.162,0.46799 0.11696,0.156 0.35095,0.24 0.70199,0.252 l 20.15974,0 c 0.28793,-0.012 0.50393,-0.096 0.64799,-0.252 0.14393,-0.15599 0.21593,-0.31199 0.216,-0.46799 -0.0151,-0.285 -0.12906,-0.54299 -0.342,-0.77399 -0.21306,-0.23099 -0.43506,-0.45299 -0.66599,-0.66599 l -3.59996,-4.17595 c -0.42605,-0.56398 -0.72605,-1.16398 -0.89999,-1.79998 -0.17405,-0.63598 -0.25805,-1.37997 -0.25199,-2.23197 l 0,-87.26287 c -0.006,-0.85189 0.0779,-1.59588 0.252,-2.23197 0.17394,-0.6359 0.47394,-1.23589 0.89998,-1.79998 l 3.59996,-4.17595 c 0.23094,-0.21289 0.45293,-0.43489 0.66599,-0.66599 0.21294,-0.23089 0.32693,-0.48889 0.342,-0.77399 -7e-5,-0.15589 -0.0721,-0.31189 -0.216,-0.468 -0.14406,-0.15589 -0.36006,-0.23988 -0.64799,-0.25199 l -17.99977,0 c -0.49804,0.0121 -0.87003,0.24011 -1.11599,0.684 -0.24604,0.4441 -0.40203,1.03209 -0.46799,1.76397 l -8.78389,62.3512 -0.28799,0 -9.50388,-62.3512 c -0.066,-0.73189 -0.25802,-1.31988 -0.57599,-1.76398 -0.31802,-0.44389 -0.79802,-0.67188 -1.43999,-0.68399 z"
         style=""
         id="path4174" />
      <path
         d="m 337.84288,643.7278 c -4.73996,-0.24892 -8.7239,2.30105 -11.95185,7.6499 -3.22797,5.349 -4.90794,14.99087 -5.03993,28.92563 0.13199,17.3728 1.81197,29.06664 5.03993,35.08155 3.22795,6.01492 7.21189,8.81688 11.95185,8.40589 4.80891,0.411 8.83485,-2.39097 12.07784,-8.40589 3.24292,-6.01491 4.9289,-17.70875 5.05794,-35.08155 -0.12904,-13.93476 -1.81502,-23.57663 -5.05794,-28.92563 -3.24299,-5.34885 -7.26893,-7.89882 -12.07784,-7.6499 z m 0,73.87105 c -1.24979,0.13956 -2.30222,-0.68354 -3.1573,-2.4693 -0.85511,-1.78575 -1.50222,-5.37147 -1.94131,-10.7572 -0.43912,-5.38568 -0.65956,-13.40868 -0.66132,-24.06902 0.006,-12.22779 0.49798,-20.42367 1.47598,-24.58768 0.97797,-4.16388 2.40595,-6.09585 4.28395,-5.79593 1.94695,-0.29992 3.41693,1.63205 4.40994,5.79593 0.99296,4.16401 1.49095,12.35989 1.49398,24.58768 -9.2e-4,10.66034 -0.22314,18.68334 -0.66666,24.06902 -0.44358,5.38572 -1.10312,8.97145 -1.97864,10.7572 -0.87557,1.78576 -1.96177,2.60886 -3.25862,2.4693 z"
         style=""
         id="path4176" />
      <path
         d="m 374.85994,644.59179 c 0.006,-0.28792 -0.042,-0.50391 -0.144,-0.64799 -0.10202,-0.14392 -0.29402,-0.21592 -0.57599,-0.216 l -13.82383,0 c -0.22499,-0.003 -0.42299,0.0391 -0.59399,0.126 -0.171,0.0871 -0.261,0.23708 -0.27,0.44999 0.006,0.14708 0.066,0.32108 0.18,0.522 0.114,0.20107 0.246,0.41107 0.396,0.62999 l 4.31994,4.03195 c 0.14399,0.13807 0.25199,0.29407 0.32399,0.46799 0.072,0.17407 0.108,0.40207 0.10801,0.68399 l 0,65.23116 c 0.006,0.28801 -0.006,0.54 -0.036,0.75599 -0.03,0.21601 -0.114,0.39601 -0.25199,0.54 l -4.46394,5.03993 c -0.213,0.15 -0.363,0.318 -0.45,0.50399 -0.087,0.186 -0.129,0.354 -0.126,0.504 0,0.40799 0.288,0.59999 0.86399,0.57599 l 19.00776,0 c 0.22497,0.003 0.42297,-0.039 0.59399,-0.126 0.17098,-0.087 0.26097,-0.23699 0.27,-0.44999 -0.003,-0.15 -0.069,-0.318 -0.198,-0.504 -0.12902,-0.18599 -0.30302,-0.35399 -0.52199,-0.50399 l -4.46395,-5.03993 c -0.12001,-0.28799 -0.16801,-0.71999 -0.14399,-1.29599 l 0,-53.42331 c 0.084,-3.92388 0.85197,-6.98384 2.30397,-9.17988 1.45196,-2.1959 3.08393,-3.31189 4.89593,-3.34796 1.65295,0.006 2.88294,0.71407 3.68995,2.12398 0.80696,1.41005 1.20896,3.48602 1.20599,6.22792 l 0,57.59925 c 0.006,0.28801 -0.006,0.54 -0.036,0.75599 -0.03,0.21601 -0.11403,0.39601 -0.252,0.54 l -4.46394,5.03993 c -0.15002,0.15 -0.28202,0.318 -0.396,0.50399 -0.11402,0.186 -0.17402,0.354 -0.17999,0.504 -2e-5,0.40799 0.28797,0.59999 0.86399,0.57599 l 19.00775,0 c 0.22496,0.003 0.42295,-0.039 0.59399,-0.126 0.17096,-0.087 0.26096,-0.23699 0.27,-0.44999 -0.006,-0.15 -0.066,-0.318 -0.18,-0.504 -0.11404,-0.18599 -0.24604,-0.35399 -0.39599,-0.50399 l -4.46394,-5.03993 c -0.13804,-0.14399 -0.22204,-0.32399 -0.252,-0.54 -0.03,-0.21599 -0.042,-0.46799 -0.036,-0.75599 l 0,-57.45526 c -0.048,-4.83286 -1.14002,-8.48681 -3.27596,-10.96186 -2.136,-2.47489 -5.02796,-3.71687 -8.67589,-3.72595 -2.39399,0.0391 -4.33796,0.53707 -5.83192,1.49398 -1.494,0.95707 -2.86198,2.13905 -4.10395,3.54596 l -0.28799,0 z"
         style=""
         id="path4178" />
    </g>
    <g
       id="g4089">
      <path
         transform="matrix(0.68866048,0,0,0.6740082,102.63333,209.58824)"
         d="m 550.53315,705.87988 c 0,26.22092 -20.80399,47.47717 -46.46702,47.47717 -25.66302,0 -46.46702,-21.25625 -46.46702,-47.47717 0,-26.22091 20.804,-47.47717 46.46702,-47.47717 25.66303,0 46.46702,21.25626 46.46702,47.47717 z"
         sodipodi:ry="47.477169"
         sodipodi:rx="46.467018"
         sodipodi:cy="705.87988"
         sodipodi:cx="504.06613"
         id="path3221"
         style="fill:#b3b6b5;fill-opacity:1;stroke:#000000;stroke-width:2.93558621;stroke-miterlimit:4;stroke-opacity:1;stroke-dasharray:none"
         sodipodi:type="arc" />
      <path
         transform="matrix(0.83333333,0,0,0.75,83.097092,615.29101)"
         d="m 428,133.4214 c 0,4.41828 -5.37258,8 -12,8 -6.62742,0 -12,-3.58172 -12,-8 0,-4.41828 5.37258,-8 12,-8 6.62742,0 12,3.58172 12,8 z"
         sodipodi:ry="8"
         sodipodi:rx="12"
         sodipodi:cy="133.4214"
         sodipodi:cx="416"
         id="path4019"
         style="fill:#ffdc50;fill-opacity:1;stroke:#000000;stroke-width:2.52982211;stroke-miterlimit:4;stroke-opacity:1;stroke-dasharray:none"
         sodipodi:type="arc" />
      <path
         transform="matrix(0.57747012,0,0,0.71496354,162.59732,187.5676)"
         d="m 559.62452,701.83923 c 0,20.08411 -10.85426,36.36549 -24.24366,36.36549 -13.38941,0 -24.24366,-16.28138 -24.24366,-36.36549 0,-20.0841 10.85425,-36.36549 24.24366,-36.36549 13.3894,0 24.24366,16.28139 24.24366,36.36549 z"
         sodipodi:ry="36.36549"
         sodipodi:rx="24.243662"
         sodipodi:cy="701.83923"
         sodipodi:cx="535.38086"
         id="path3223"
         style="fill:#e5e4dd;fill-opacity:1;stroke:#000000;stroke-width:3.11259961;stroke-miterlimit:4;stroke-opacity:1;stroke-dasharray:none"
         sodipodi:type="arc" />
      <path
         transform="matrix(0.75000019,0,0,0.99999998,117.76368,613.93566)"
         d="m 416,11.421402 c 0,5.522847 -3.58172,10 -8,10 -4.41828,0 -8,-4.477153 -8,-10 0,-5.5228475 3.58172,-10 8,-10 4.41828,0 8,4.4771525 8,10 z"
         sodipodi:ry="10"
         sodipodi:rx="8"
         sodipodi:cy="11.421402"
         sodipodi:cx="408"
         id="path3247"
         style="fill:#adaaa9;fill-opacity:1;stroke:#000000;stroke-width:2.3094008;stroke-miterlimit:4;stroke-opacity:1;stroke-dasharray:none"
         sodipodi:type="arc" />
      <path
         transform="matrix(0.77861192,0,0,0.8534038,55.471636,93.370271)"
         d="m 547.50269,650.32147 c 0,16.17887 -20.1256,29.29443 -44.95179,29.29443 -24.82618,0 -44.95179,-13.11556 -44.95179,-29.29443 0,-16.17886 20.12561,-29.29442 44.95179,-29.29442 24.82619,0 44.95179,13.11556 44.95179,29.29442 z"
         sodipodi:ry="29.294424"
         sodipodi:rx="44.95179"
         sodipodi:cy="650.32147"
         sodipodi:cx="502.5509"
         id="path3219"
         style="fill:#dedbd9;fill-opacity:1;stroke:#000000;stroke-width:2.45353484;stroke-miterlimit:4;stroke-opacity:1;stroke-dasharray:none"
         sodipodi:type="arc" />
      <g
         transform="translate(-56,4)"
         id="g3241">
        <rect
           style="fill:#ffffff;fill-opacity:1;stroke:#000000;stroke-width:2;stroke-miterlimit:4;stroke-opacity:1;stroke-dasharray:none"
           id="rect3235"
           width="16"
           height="16"
           x="501.76376"
           y="635.35706"
           rx="96"
           ry="16" />
        <path
           sodipodi:type="arc"
           style="fill:#000000;fill-opacity:1;stroke:#000000;stroke-width:2;stroke-miterlimit:4;stroke-opacity:1;stroke-dasharray:none"
           id="path3239"
           sodipodi:cx="442"
           sodipodi:cy="33.421402"
           sodipodi:rx="2"
           sodipodi:ry="4"
           d="m 444,33.421402 c 0,2.209139 -0.89543,4 -2,4 -1.10457,0 -2,-1.790861 -2,-4 0,-2.209139 0.89543,-4 2,-4 1.10457,0 2,1.790861 2,4 z"
           transform="translate(65.763757,609.93566)" />
      </g>
      <use
         height="145.4214"
         width="503.94196"
         transform="translate(-24.000006,6.3e-6)"
         id="use3245"
         xlink:href="#g3241"
         y="0"
         x="0" />
      <use
         style="fill:#afacac;fill-opacity:1"
         height="145.4214"
         width="503.94196"
         transform="translate(41.999999,2.8428076e-8)"
         id="use3249"
         xlink:href="#path3247"
         y="0"
         x="0" />
      <path
         inkscape:connector-curvature="0"
         id="path4025"
         d="m 441.76376,657.35706 -4,8 8,0 z"
         style="fill:#ddca36;fill-opacity:1;stroke:none" />
      <path
         transform="translate(65.763757,613.35706)"
         inkscape:connector-curvature="0"
         id="path4023"
         d="m 376,44 -4,8 8,0"
         style="fill:none;stroke:#000000;stroke-width:1px;stroke-linecap:butt;stroke-linejoin:miter;stroke-opacity:1" />
      <path
         transform="matrix(0.83333333,0,0,0.75,109.09709,619.29101)"
         d="m 428,133.4214 a 12,8 0 1 1 -24,0 12,8 0 1 1 24,0 z"
         sodipodi:ry="8"
         sodipodi:rx="12"
         sodipodi:cy="133.4214"
         sodipodi:cx="416"
         id="path4019-1"
         style="fill:#ffdc50;fill-opacity:1;stroke:#000000;stroke-width:2.52982211;stroke-miterlimit:4;stroke-opacity:1;stroke-dasharray:none"
         sodipodi:type="arc" />
    </g>
  </g>
</svg>