<?xml version="1.0" encoding="UTF-8" standalone="no"?>
<!-- Created with Inkscape (http://www.inkscape.org/) -->

<svg
   xmlns:dc="http://purl.org/dc/elements/1.1/"
   xmlns:cc="http://creativecommons.org/ns#"
   xmlns:rdf="http://www.w3.org/1999/02/22-rdf-syntax-ns#"
   xmlns:svg="http://www.w3.org/2000/svg"
   xmlns="http://www.w3.org/2000/svg"
   xmlns:xlink="http://www.w3.org/1999/xlink"
   xmlns:sodipodi="http://sodipodi.sourceforge.net/DTD/sodipodi-0.dtd"
   xmlns:inkscape="http://www.inkscape.org/namespaces/inkscape"
   id="svg3042"
   version="1.1"
   inkscape:version="0.48.2 r9819"
   width="154.42924"
   height="172.84033"
   xml:space="preserve"
   sodipodi:docname="Apple___Mac_OS.eps"><metadata
     id="metadata3048"><rdf:RDF><cc:Work
         rdf:about=""><dc:format>image/svg+xml</dc:format><dc:type
           rdf:resource="http://purl.org/dc/dcmitype/StillImage" /><dc:title></dc:title></cc:Work></rdf:RDF></metadata><defs
     id="defs3046"><clipPath
       clipPathUnits="userSpaceOnUse"
       id="clipPath3058"><path
         d="m 2211.37,2030.72 c 53.67,82.94 138.04,134.44 220.04,134.44 42.46,0 76.88,-12.34 113.3,-25.28 l 114.78,-25.84 104.74,24.37 c 34.63,13.11 70.52,26.75 122.59,26.75 62.57,0 125.29,-34.88 176.73,-87.12 -46.2,-35.82 -80.5,-81.31 -100.34,-132.96 11.08,-0.95 21.65,-2 32.59,-3.13 19.73,55.02 58.79,104.52 119.4,137.92 -61.25,76.43 -147.24,120.8 -228.38,120.8 -107.37,0 -152.76,-51.15 -227.33,-51.15 -76.81,0 -135.1,51.15 -228.08,51.15 -91.2,0 -188.27,-55.58 -249.83,-150.5 -22.63,-35.09 -37.97,-78.69 -46.33,-127.24 12.16,1.65 24.67,3.31 36.92,5.03 7.94,40.22 21.4,75.27 39.2,102.76 z"
         id="path3060"
         inkscape:connector-curvature="0" /></clipPath><linearGradient
       x1="0"
       y1="0"
       x2="1"
       y2="0"
       gradientUnits="userSpaceOnUse"
       gradientTransform="matrix(-1.21e-6,-27.7734,-27.7734,1.21e-6,262.522,220.067)"
       spreadMethod="pad"
       id="linearGradient3062"><stop
         style="stop-opacity:1;stop-color:#a7c3e0"
         offset="0"
         id="stop3064" /><stop
         style="stop-opacity:1;stop-color:#849db6"
         offset="1"
         id="stop3066" /></linearGradient><clipPath
       clipPathUnits="userSpaceOnUse"
       id="clipPath3074"><path
         d="m 3063.55,2078.04 c -51.44,52.24 -114.16,87.12 -176.73,87.12 -52.07,0 -87.96,-13.64 -122.59,-26.75 l -104.74,-24.37 -114.78,25.84 c -36.42,12.94 -70.84,25.28 -113.3,25.28 -82,0 -166.37,-51.5 -220.04,-134.44 -17.8,-27.49 -31.26,-62.54 -39.2,-102.76 143.08,19.33 302.93,30.62 472.56,30.62 110.91,0 217.65,-4.85 318.48,-13.5 19.84,51.65 54.14,97.14 100.34,132.96 z"
         id="path3076"
         inkscape:connector-curvature="0" /></clipPath><linearGradient
       x1="0"
       y1="0"
       x2="1"
       y2="0"
       gradientUnits="userSpaceOnUse"
       gradientTransform="matrix(-1.04e-6,-23.7202,-23.7202,1.04e-6,261.786,216.516)"
       spreadMethod="pad"
       id="linearGradient3078"><stop
         style="stop-opacity:1;stop-color:#d8dbe7"
         offset="0"
         id="stop3080" /><stop
         style="stop-opacity:1;stop-color:#ffffff"
         offset="1"
         id="stop3082" /></linearGradient><clipPath
       clipPathUnits="userSpaceOnUse"
       id="clipPath3090"><path
         d="m 2708.86,2358.85 c 28.68,34.95 73.62,59.14 117.18,72.6 -5.91,-56.67 -33.44,-103.95 -48.74,-123.57 -30.33,-39.1 -75.41,-62.37 -119.66,-71.44 5.02,57.23 38.45,106.7 51.22,122.41 z m 96.5,-72.74 c 39,50.03 68.62,120.76 57.86,193.36 -63.73,-4.46 -138.3,-45.1 -181.76,-98.08 -39.43,-48.03 -72.16,-119.29 -59.47,-188.53 69.61,-2.18 141.54,39.5 183.37,93.25 z"
         id="path3092"
         inkscape:connector-curvature="0" /></clipPath><linearGradient
       x1="0"
       y1="0"
       x2="1"
       y2="0"
       gradientUnits="userSpaceOnUse"
       gradientTransform="matrix(-1.25e-6,-28.6694,-28.6694,1.25e-6,274.233,247.947)"
       spreadMethod="pad"
       id="linearGradient3094"><stop
         style="stop-opacity:1;stop-color:#a7c3e0"
         offset="0"
         id="stop3096" /><stop
         style="stop-opacity:1;stop-color:#849db6"
         offset="1"
         id="stop3098" /></linearGradient><clipPath
       clipPathUnits="userSpaceOnUse"
       id="clipPath3106"><path
         d="m 2777.3,2307.88 c 15.3,19.62 42.83,66.9 48.74,123.57 -43.56,-13.46 -88.5,-37.65 -117.18,-72.6 -12.77,-15.71 -46.2,-65.18 -51.22,-122.41 44.25,9.07 89.33,32.34 119.66,71.44 z"
         id="path3108"
         inkscape:connector-curvature="0" /></clipPath><linearGradient
       x1="0"
       y1="0"
       x2="1"
       y2="0"
       gradientUnits="userSpaceOnUse"
       gradientTransform="matrix(-8.5e-7,19.501,19.501,8.5e-7,274.184,223.644)"
       spreadMethod="pad"
       id="linearGradient3110"><stop
         style="stop-opacity:1;stop-color:#d8dbe7"
         offset="0"
         id="stop3112" /><stop
         style="stop-opacity:1;stop-color:#ffffff"
         offset="1"
         id="stop3114" /></linearGradient><clipPath
       clipPathUnits="userSpaceOnUse"
       id="clipPath3122"><path
         d="m 2250.1,1451.81 c 50.27,-76.44 117.28,-162.53 204.82,-163.27 77.98,-0.78 100.1,49.85 205.67,50.38 105.72,0.59 125.76,-50.91 203.63,-50.17 87.57,0.74 158.26,96.02 208.53,172.44 35.8,54.85 49.34,82.55 77.17,144.56 -141.53,53.37 -199.74,209.32 -154.12,336.2 -10.94,1.13 -21.51,2.18 -32.59,3.13 -10.83,-28.26 -18.56,-57.97 -18.56,-90.35 0,-7.31 0.31,-14.73 0.88,-22.29 7.42,-104.98 67.5,-192.48 156.9,-240.71 -19.23,-35.97 -59.44,-111.13 -59.44,-111.13 -47.58,-72.6 -110.92,-155.85 -179.06,-156.41 l -70.17,19.05 c -30.69,14.03 -68.76,31.54 -133.35,31.15 -63.88,-0.35 -102.37,-17.51 -133.31,-31.39 l -71.87,-19.03 c -70.31,0.57 -130.63,79.08 -175.35,147.17 -106.03,161.61 -131.94,333.91 -107.71,456.82 -12.25,-1.72 -24.76,-3.38 -36.92,-5.03 -23.2,-136.19 11.46,-313.59 114.85,-471.12 z"
         id="path3124"
         inkscape:connector-curvature="0" /></clipPath><linearGradient
       x1="0"
       y1="0"
       x2="1"
       y2="0"
       gradientUnits="userSpaceOnUse"
       gradientTransform="matrix(-2.87e-6,-65.6563,-65.6563,2.87e-6,263.914,194.508)"
       spreadMethod="pad"
       id="linearGradient3126"><stop
         style="stop-opacity:1;stop-color:#a7c3e0"
         offset="0"
         id="stop3128" /><stop
         style="stop-opacity:1;stop-color:#849db6"
         offset="1"
         id="stop3130" /></linearGradient><clipPath
       clipPathUnits="userSpaceOnUse"
       id="clipPath3138"><path
         d="m 2172.17,1927.96 c -24.23,-122.91 1.68,-295.21 107.71,-456.82 44.72,-68.09 105.04,-146.6 175.35,-147.17 l 71.87,19.03 c 30.94,13.88 69.43,31.04 133.31,31.39 64.59,0.39 102.66,-17.12 133.35,-31.15 l 70.17,-19.05 c 68.14,0.56 131.48,83.81 179.06,156.41 0,0 40.21,75.16 59.44,111.13 -89.4,48.23 -149.48,135.73 -156.9,240.71 -0.57,7.56 -0.88,14.98 -0.88,22.29 0,32.38 7.73,62.09 18.56,90.35 -100.83,8.65 -207.57,13.5 -318.48,13.5 -169.63,0 -329.48,-11.29 -472.56,-30.62 z"
         id="path3140"
         inkscape:connector-curvature="0" /></clipPath><linearGradient
       x1="0"
       y1="0"
       x2="1"
       y2="0"
       gradientUnits="userSpaceOnUse"
       gradientTransform="matrix(-2.77e-6,63.4604,63.4604,2.77e-6,263.311,132.397)"
       spreadMethod="pad"
       id="linearGradient3142"><stop
         style="stop-opacity:1;stop-color:#a7c3e0"
         offset="0"
         id="stop3144" /><stop
         style="stop-opacity:1;stop-color:#849db6"
         offset="1"
         id="stop3146" /></linearGradient><linearGradient
       x1="0"
       y1="0"
       x2="1"
       y2="0"
       gradientUnits="userSpaceOnUse"
       gradientTransform="matrix(-4.35e-6,-99.521,-99.521,4.35e-6,130.605,228.104)"
       spreadMethod="pad"
       id="linearGradient3150"><stop
         style="stop-opacity:1;stop-color:#9ad5f4"
         offset="0"
         id="stop3152" /><stop
         style="stop-opacity:1;stop-color:#cdeffc"
         offset="1"
         id="stop3154" /></linearGradient><linearGradient
       x1="0"
       y1="0"
       x2="1"
       y2="0"
       gradientUnits="userSpaceOnUse"
       gradientTransform="matrix(-3.26e-6,74.5515,74.5515,3.26e-6,165.761,151.079)"
       spreadMethod="pad"
       id="linearGradient3158"><stop
         style="stop-opacity:1;stop-color:#9ad5f4"
         offset="0"
         id="stop3160" /><stop
         style="stop-opacity:1;stop-color:#cdeffc"
         offset="1"
         id="stop3162" /></linearGradient><linearGradient
       x1="0"
       y1="0"
       x2="1"
       y2="0"
       gradientUnits="userSpaceOnUse"
       gradientTransform="matrix(-9.7e-7,22.097,22.097,9.7e-7,134.507,205.567)"
       spreadMethod="pad"
       id="linearGradient3166"><stop
         style="stop-opacity:1;stop-color:#ffffff"
         offset="0"
         id="stop3168" /><stop
         style="stop-opacity:1;stop-color:#c0ebfb"
         offset="1"
         id="stop3170" /></linearGradient><linearGradient
       x1="0"
       y1="0"
       x2="1"
       y2="0"
       gradientUnits="userSpaceOnUse"
       gradientTransform="matrix(-1.06e-6,-24.3293,-24.3293,1.06e-6,139.51,228.033)"
       spreadMethod="pad"
       id="linearGradient3174"><stop
         style="stop-opacity:1;stop-color:#9ad5f4"
         offset="0"
         id="stop3176" /><stop
         style="stop-opacity:1;stop-color:#cdeffc"
         offset="1"
         id="stop3178" /></linearGradient><linearGradient
       x1="0"
       y1="0"
       x2="1"
       y2="0"
       gradientUnits="userSpaceOnUse"
       gradientTransform="matrix(49.8516,0,0,-49.8516,117.098,129.148)"
       spreadMethod="pad"
       id="linearGradient3182"><stop
         style="stop-opacity:1;stop-color:#9ad5f4"
         offset="0"
         id="stop3184" /><stop
         style="stop-opacity:1;stop-color:#cdeffc"
         offset="1"
         id="stop3186" /></linearGradient><linearGradient
       x1="0"
       y1="0"
       x2="1"
       y2="0"
       gradientUnits="userSpaceOnUse"
       gradientTransform="matrix(-4.35e-6,-99.521,-99.521,4.35e-6,80.9644,228.104)"
       spreadMethod="pad"
       id="linearGradient3190"><stop
         style="stop-opacity:1;stop-color:#83a7dd"
         offset="0"
         id="stop3192" /><stop
         style="stop-opacity:1;stop-color:#264a90"
         offset="1"
         id="stop3194" /></linearGradient><linearGradient
       x1="0"
       y1="0"
       x2="1"
       y2="0"
       gradientUnits="userSpaceOnUse"
       gradientTransform="matrix(-3.26e-6,74.5515,74.5515,3.26e-6,46.1846,151.079)"
       spreadMethod="pad"
       id="linearGradient3198"><stop
         style="stop-opacity:1;stop-color:#83a7dd"
         offset="0"
         id="stop3200" /><stop
         style="stop-opacity:1;stop-color:#264a90"
         offset="1"
         id="stop3202" /></linearGradient><linearGradient
       x1="0"
       y1="0"
       x2="1"
       y2="0"
       gradientUnits="userSpaceOnUse"
       gradientTransform="matrix(71.0156,0,0,-71.0156,45.0068,129.148)"
       spreadMethod="pad"
       id="linearGradient3206"><stop
         style="stop-opacity:1;stop-color:#83a7dd"
         offset="0"
         id="stop3208" /><stop
         style="stop-opacity:1;stop-color:#264a90"
         offset="1"
         id="stop3210" /></linearGradient><linearGradient
       x1="0"
       y1="0"
       x2="1"
       y2="0"
       gradientUnits="userSpaceOnUse"
       gradientTransform="matrix(-9.6e-7,-21.9805,-21.9805,9.6e-7,79.249,225.753)"
       spreadMethod="pad"
       id="linearGradient3214"><stop
         style="stop-opacity:1;stop-color:#c0caeb"
         offset="0"
         id="stop3216" /><stop
         style="stop-opacity:1;stop-color:#ffffff"
         offset="1"
         id="stop3218" /></linearGradient><linearGradient
       x1="0"
       y1="0"
       x2="1"
       y2="0"
       gradientUnits="userSpaceOnUse"
       gradientTransform="matrix(-1.03e-6,-23.5047,-23.5047,1.03e-6,79.249,227.205)"
       spreadMethod="pad"
       id="linearGradient3222"><stop
         style="stop-opacity:1;stop-color:#83a7dd"
         offset="0"
         id="stop3224" /><stop
         style="stop-opacity:1;stop-color:#264a90"
         offset="1"
         id="stop3226" /></linearGradient><linearGradient
       inkscape:collect="always"
       xlink:href="#linearGradient3062"
       id="linearGradient3254"
       gradientUnits="userSpaceOnUse"
       gradientTransform="matrix(-1.21e-6,-27.7734,-27.7734,1.21e-6,262.522,220.067)"
       spreadMethod="pad"
       x1="0"
       y1="0"
       x2="1"
       y2="0" /><linearGradient
       inkscape:collect="always"
       xlink:href="#linearGradient3078"
       id="linearGradient3256"
       gradientUnits="userSpaceOnUse"
       gradientTransform="matrix(-1.04e-6,-23.7202,-23.7202,1.04e-6,261.786,216.516)"
       spreadMethod="pad"
       x1="0"
       y1="0"
       x2="1"
       y2="0" /><linearGradient
       inkscape:collect="always"
       xlink:href="#linearGradient3094"
       id="linearGradient3258"
       gradientUnits="userSpaceOnUse"
       gradientTransform="matrix(-1.25e-6,-28.6694,-28.6694,1.25e-6,274.233,247.947)"
       spreadMethod="pad"
       x1="0"
       y1="0"
       x2="1"
       y2="0" /><linearGradient
       inkscape:collect="always"
       xlink:href="#linearGradient3110"
       id="linearGradient3260"
       gradientUnits="userSpaceOnUse"
       gradientTransform="matrix(-8.5e-7,19.501,19.501,8.5e-7,274.184,223.644)"
       spreadMethod="pad"
       x1="0"
       y1="0"
       x2="1"
       y2="0" /><linearGradient
       inkscape:collect="always"
       xlink:href="#linearGradient3126"
       id="linearGradient3262"
       gradientUnits="userSpaceOnUse"
       gradientTransform="matrix(-2.87e-6,-65.6563,-65.6563,2.87e-6,263.914,194.508)"
       spreadMethod="pad"
       x1="0"
       y1="0"
       x2="1"
       y2="0" /><linearGradient
       inkscape:collect="always"
       xlink:href="#linearGradient3142"
       id="linearGradient3264"
       gradientUnits="userSpaceOnUse"
       gradientTransform="matrix(-2.77e-6,63.4604,63.4604,2.77e-6,263.311,132.397)"
       spreadMethod="pad"
       x1="0"
       y1="0"
       x2="1"
       y2="0" /><linearGradient
       inkscape:collect="always"
       xlink:href="#linearGradient3150"
       id="linearGradient3266"
       gradientUnits="userSpaceOnUse"
       gradientTransform="matrix(-4.35e-6,-99.521,-99.521,4.35e-6,130.605,228.104)"
       spreadMethod="pad"
       x1="0"
       y1="0"
       x2="1"
       y2="0" /><linearGradient
       inkscape:collect="always"
       xlink:href="#linearGradient3158"
       id="linearGradient3268"
       gradientUnits="userSpaceOnUse"
       gradientTransform="matrix(-3.26e-6,74.5515,74.5515,3.26e-6,165.761,151.079)"
       spreadMethod="pad"
       x1="0"
       y1="0"
       x2="1"
       y2="0" /><linearGradient
       inkscape:collect="always"
       xlink:href="#linearGradient3166"
       id="linearGradient3270"
       gradientUnits="userSpaceOnUse"
       gradientTransform="matrix(-9.7e-7,22.097,22.097,9.7e-7,134.507,205.567)"
       spreadMethod="pad"
       x1="0"
       y1="0"
       x2="1"
       y2="0" /><linearGradient
       inkscape:collect="always"
       xlink:href="#linearGradient3174"
       id="linearGradient3272"
       gradientUnits="userSpaceOnUse"
       gradientTransform="matrix(-1.06e-6,-24.3293,-24.3293,1.06e-6,139.51,228.033)"
       spreadMethod="pad"
       x1="0"
       y1="0"
       x2="1"
       y2="0" /><linearGradient
       inkscape:collect="always"
       xlink:href="#linearGradient3182"
       id="linearGradient3274"
       gradientUnits="userSpaceOnUse"
       gradientTransform="matrix(49.8516,0,0,-49.8516,117.098,129.148)"
       spreadMethod="pad"
       x1="0"
       y1="0"
       x2="1"
       y2="0" /><linearGradient
       inkscape:collect="always"
       xlink:href="#linearGradient3190"
       id="linearGradient3276"
       gradientUnits="userSpaceOnUse"
       gradientTransform="matrix(-4.35e-6,-99.521,-99.521,4.35e-6,80.9644,228.104)"
       spreadMethod="pad"
       x1="0"
       y1="0"
       x2="1"
       y2="0" /><linearGradient
       inkscape:collect="always"
       xlink:href="#linearGradient3198"
       id="linearGradient3278"
       gradientUnits="userSpaceOnUse"
       gradientTransform="matrix(-3.26e-6,74.5515,74.5515,3.26e-6,46.1846,151.079)"
       spreadMethod="pad"
       x1="0"
       y1="0"
       x2="1"
       y2="0" /><linearGradient
       inkscape:collect="always"
       xlink:href="#linearGradient3206"
       id="linearGradient3280"
       gradientUnits="userSpaceOnUse"
       gradientTransform="matrix(71.0156,0,0,-71.0156,45.0068,129.148)"
       spreadMethod="pad"
       x1="0"
       y1="0"
       x2="1"
       y2="0" /><linearGradient
       inkscape:collect="always"
       xlink:href="#linearGradient3214"
       id="linearGradient3282"
       gradientUnits="userSpaceOnUse"
       gradientTransform="matrix(-9.6e-7,-21.9805,-21.9805,9.6e-7,79.249,225.753)"
       spreadMethod="pad"
       x1="0"
       y1="0"
       x2="1"
       y2="0" /><linearGradient
       inkscape:collect="always"
       xlink:href="#linearGradient3222"
       id="linearGradient3284"
       gradientUnits="userSpaceOnUse"
       gradientTransform="matrix(-1.03e-6,-23.5047,-23.5047,1.03e-6,79.249,227.205)"
       spreadMethod="pad"
       x1="0"
       y1="0"
       x2="1"
       y2="0" /><linearGradient
       inkscape:collect="always"
       xlink:href="#linearGradient3222"
       id="linearGradient3299"
       gradientUnits="userSpaceOnUse"
       gradientTransform="matrix(-1.03e-7,-2.35047,-2.35047,1.03e-7,7.9249,22.7205)"
       spreadMethod="pad"
       x1="0"
       y1="0"
       x2="1"
       y2="0" /><linearGradient
       inkscape:collect="always"
       xlink:href="#linearGradient3214"
       id="linearGradient3302"
       gradientUnits="userSpaceOnUse"
       gradientTransform="matrix(-9.6e-8,-2.19805,-2.19805,9.6e-8,7.9249,22.5753)"
       spreadMethod="pad"
       x1="0"
       y1="0"
       x2="1"
       y2="0" /><linearGradient
       inkscape:collect="always"
       xlink:href="#linearGradient3206"
       id="linearGradient3305"
       gradientUnits="userSpaceOnUse"
       gradientTransform="matrix(7.10156,0,0,-7.10156,4.50068,12.9148)"
       spreadMethod="pad"
       x1="0"
       y1="0"
       x2="1"
       y2="0" /><linearGradient
       inkscape:collect="always"
       xlink:href="#linearGradient3198"
       id="linearGradient3308"
       gradientUnits="userSpaceOnUse"
       gradientTransform="matrix(-3.26e-7,7.45515,7.45515,3.26e-7,4.61846,15.1079)"
       spreadMethod="pad"
       x1="0"
       y1="0"
       x2="1"
       y2="0" /><linearGradient
       inkscape:collect="always"
       xlink:href="#linearGradient3190"
       id="linearGradient3311"
       gradientUnits="userSpaceOnUse"
       gradientTransform="matrix(-4.35e-7,-9.9521,-9.9521,4.35e-7,8.09644,22.8104)"
       spreadMethod="pad"
       x1="0"
       y1="0"
       x2="1"
       y2="0" /><linearGradient
       inkscape:collect="always"
       xlink:href="#linearGradient3182"
       id="linearGradient3314"
       gradientUnits="userSpaceOnUse"
       gradientTransform="matrix(4.98516,0,0,-4.98516,11.7098,12.9148)"
       spreadMethod="pad"
       x1="0"
       y1="0"
       x2="1"
       y2="0" /><linearGradient
       inkscape:collect="always"
       xlink:href="#linearGradient3174"
       id="linearGradient3317"
       gradientUnits="userSpaceOnUse"
       gradientTransform="matrix(-1.06e-7,-2.43293,-2.43293,1.06e-7,13.951,22.8033)"
       spreadMethod="pad"
       x1="0"
       y1="0"
       x2="1"
       y2="0" /><linearGradient
       inkscape:collect="always"
       xlink:href="#linearGradient3166"
       id="linearGradient3320"
       gradientUnits="userSpaceOnUse"
       gradientTransform="matrix(-9.7e-8,2.2097,2.2097,9.7e-8,13.4507,20.5567)"
       spreadMethod="pad"
       x1="0"
       y1="0"
       x2="1"
       y2="0" /><linearGradient
       inkscape:collect="always"
       xlink:href="#linearGradient3158"
       id="linearGradient3323"
       gradientUnits="userSpaceOnUse"
       gradientTransform="matrix(-3.26e-7,7.45515,7.45515,3.26e-7,16.5761,15.1079)"
       spreadMethod="pad"
       x1="0"
       y1="0"
       x2="1"
       y2="0" /><linearGradient
       inkscape:collect="always"
       xlink:href="#linearGradient3150"
       id="linearGradient3326"
       gradientUnits="userSpaceOnUse"
       gradientTransform="matrix(-4.35e-7,-9.9521,-9.9521,4.35e-7,13.0605,22.8104)"
       spreadMethod="pad"
       x1="0"
       y1="0"
       x2="1"
       y2="0" /></defs><sodipodi:namedview
     pagecolor="#ffffff"
     bordercolor="#666666"
     borderopacity="1"
     objecttolerance="10"
     gridtolerance="10"
     guidetolerance="10"
     inkscape:pageopacity="0"
     inkscape:pageshadow="2"
     inkscape:window-width="1318"
     inkscape:window-height="629"
     id="namedview3044"
     showgrid="false"
     fit-margin-top="1"
     fit-margin-left="1"
     fit-margin-right="1"
     fit-margin-bottom="1"
     inkscape:zoom="1.02"
     inkscape:cx="-43.003348"
     inkscape:cy="150.35883"
     inkscape:window-x="48"
     inkscape:window-y="48"
     inkscape:window-maximized="1"
     inkscape:current-layer="g3050" /><g
     id="g3050"
     inkscape:groupmode="layer"
     inkscape:label="ink_ext_XXXXXX"
     transform="matrix(1.25,0,0,-1.25,-55.25825,308.22892)"><path
       inkscape:connector-curvature="0"
       id="path3156"
       style="fill:url(#linearGradient3326);fill-opacity:1;fill-rule:evenodd;stroke:none"
       d="m 94.2605,170.004 22.9715,0 c -3.551,-13.83 -2.665,-27.633 -0.134,-41.421 l 49.852,0 0,99.521 -53.325,0 c -9.759,-16.25 -18.5766,-33.399 -19.3645,-58.1" /><path
       inkscape:connector-curvature="0"
       id="path3164"
       style="fill:url(#linearGradient3323);fill-opacity:1;fill-rule:evenodd;stroke:none"
       d="m 166.95,128.583 0,97.271 -2.377,-0.106 0,-97.053 2.377,-0.112" /><path
       inkscape:connector-curvature="0"
       id="path3172"
       style="fill:url(#linearGradient3320);fill-opacity:1;fill-rule:evenodd;stroke:none"
       d="m 102.065,206.939 c 21.664,0.162 42.793,-0.914 64.885,-3.606 l 0,24.777 -53.627,0 -11.258,-21.171" /><path
       inkscape:connector-curvature="0"
       id="path3180"
       style="fill:url(#linearGradient3317);fill-opacity:1;fill-rule:evenodd;stroke:none"
       d="m 166.95,203.333 -2.377,0.238 0,22.177 -52.502,0 1.252,2.356 53.627,0 0,-24.771" /><path
       inkscape:connector-curvature="0"
       id="path3188"
       style="fill:url(#linearGradient3314);fill-opacity:1;fill-rule:evenodd;stroke:none"
       d="m 117.098,128.583 49.852,0 0,1.13203 -49.852,0 0,-1.13203 z" /><path
       inkscape:connector-curvature="0"
       id="path3196"
       style="fill:url(#linearGradient3311);fill-opacity:1;fill-rule:evenodd;stroke:none"
       d="m 45.0066,228.104 0,-99.521 71.9154,0 c -3.529,14.077 -3.599,28.146 -0.035,42.223 -2.397,-1.814 -19.8487,1.378 -22.3026,-0.451 0.7664,21.98 9.1266,40.156 18.6956,57.749 l -68.2734,0" /><path
       inkscape:connector-curvature="0"
       id="path3204"
       style="fill:url(#linearGradient3308);fill-opacity:1;fill-rule:evenodd;stroke:none"
       d="m 47.3621,128.583 0,97.271 -2.3555,-0.106 0,-97.053 2.3555,-0.112" /><path
       inkscape:connector-curvature="0"
       id="path3212"
       style="fill:url(#linearGradient3305);fill-opacity:1;fill-rule:evenodd;stroke:none"
       d="m 45.0066,128.583 71.0152,0 0,1.13203 -71.0152,0 0,-1.13203 z" /><path
       inkscape:connector-curvature="0"
       id="path3220"
       style="fill:url(#linearGradient3302);fill-opacity:1;fill-rule:evenodd;stroke:none"
       d="m 45.0066,203.149 c 20.2711,2.701 37.7864,3.636 56.7704,3.776 l 11.714,21.179 -68.4844,0 0,-24.955" /><path
       inkscape:connector-curvature="0"
       id="path3228"
       style="fill:url(#linearGradient3299);fill-opacity:1;fill-rule:evenodd;stroke:none"
       d="m 45.0066,203.149 0,24.955 68.4844,0 -1.301,-2.356 -64.8279,0 0,-22.317 -2.3555,-0.282" /><path
       inkscape:connector-curvature="0"
       id="path3230"
       style="fill:none;stroke:#231f20;stroke-width:6.3613801;stroke-linecap:square;stroke-linejoin:miter;stroke-miterlimit:4;stroke-opacity:1;stroke-dasharray:none"
       d="m 77.7516,209.724 0,-8.684" /><path
       inkscape:connector-curvature="0"
       id="path3232"
       style="fill:none;stroke:#231f20;stroke-width:6.3613801;stroke-linecap:square;stroke-linejoin:miter;stroke-miterlimit:4;stroke-opacity:1;stroke-dasharray:none"
       d="m 130.113,209.724 0,-8.684" /><path
       inkscape:connector-curvature="0"
       id="path3234"
       style="fill:none;stroke:#231f20;stroke-width:5.88427019;stroke-linecap:butt;stroke-linejoin:miter;stroke-miterlimit:4;stroke-opacity:1;stroke-dasharray:none"
       d="m 64.448,158.149 c 0.8512,-0.626 4.7606,-2.496 7.3059,-3.459 5.1957,-1.99 15.7008,-5.589 34.1431,-5.765 l 0.134,0 c 18.45,0.176 28.955,3.775 34.151,5.765 2.531,0.963 6.462,2.833 7.305,3.459" /><path
       inkscape:connector-curvature="0"
       id="path3236"
       style="fill:none;stroke:#231f20;stroke-width:5.88427019;stroke-linecap:butt;stroke-linejoin:miter;stroke-miterlimit:4;stroke-opacity:1;stroke-dasharray:none"
       d="M 124.629,242.841 C 107.283,222.071 95.5266,197.764 94.3594,170.988 l 22.1976,0 c -5.498,-22.309 -2.566,-41.294 6.215,-58.935" /></g></svg>